Coordinates
version=1
nRows=17
nColumns=63
inDegrees=yes

Units are S.I. units (second, meters, Newtons, ...)
If the header above contains a line with 'inDegrees', this indicates whether rotational values are in degrees (yes) or radians (no).

endheader
time	pelvis_tilt	pelvis_list	pelvis_rotation	pelvis_tx	pelvis_ty	pelvis_tz	hip_flexion_r	hip_adduction_r	hip_rotation_r	knee_angle_r	knee_angle_r_beta	ankle_angle_r	subtalar_angle_r	mtp_angle_r	hip_flexion_l	hip_adduction_l	hip_rotation_l	knee_angle_l	knee_angle_l_beta	ankle_angle_l	subtalar_angle_l	mtp_angle_l	L5_S1_Flex_Ext	L5_S1_Lat_Bending	L5_S1_axial_rotation	L4_L5_Flex_Ext	L4_L5_Lat_Bending	L4_L5_axial_rotation	L3_L4_Flex_Ext	L3_L4_Lat_Bending	L3_L4_axial_rotation	L2_L3_Flex_Ext	L2_L3_Lat_Bending	L2_L3_axial_rotation	L1_L2_Flex_Ext	L1_L2_Lat_Bending	L1_L2_axial_rotation	L1_T12_Flex_Ext	L1_T12_Lat_Bending	L1_T12_axial_rotation	Abs_r3	Abs_r2	Abs_r1	Abs_t1	Abs_t2	neck_flexion	neck_bending	neck_rotation	arm_flex_r	arm_add_r	arm_rot_r	elbow_flex_r	pro_sup_r	wrist_flex_r	wrist_dev_r	arm_flex_l	arm_add_l	arm_rot_l	elbow_flex_l	pro_sup_l	wrist_flex_l	wrist_dev_l
7.454545	3.994162	-2.092550	93.185085	0.097328	0.690819	0.823153	-4.871408	3.755984	2.943043	5.383750	0.093964	28.561745	4.627652	0.000000	-1.122686	-3.808576	-9.149197	12.673491	0.221194	35.821545	7.600302	0.000000	-0.083211	0.307213	-1.626523	-0.154531	0.408594	-1.728181	-0.136708	0.746959	-1.728181	-0.095102	0.746959	-1.423208	-0.077270	0.626470	-1.321550	-0.047547	0.475874	-1.219892	-0.594369	3.475260	-9.046234	0.000000	0.000000	1.377887	-2.718908	-5.483096	247.123691	-173.004262	236.870225	84.241765	69.214333	3.225891	15.823748	37.049979	-31.059586	-34.659264	72.752077	82.008036	-19.833814	9.131533
7.472727	4.012080	-2.104451	93.309953	0.098379	0.690223	0.822640	-4.905021	3.851342	3.186262	5.277413	0.092108	28.650806	4.388918	0.000000	-1.001017	-3.931927	-9.438057	12.837843	0.224063	36.137231	7.772729	0.000000	-0.075849	0.301769	-1.670295	-0.140860	0.401352	-1.774688	-0.124613	0.733721	-1.774688	-0.086688	0.733721	-1.461508	-0.070434	0.615367	-1.357114	-0.043340	0.467440	-1.252721	-0.541785	3.413669	-9.289677	0.000000	0.000000	2.503282	-2.976177	-4.750184	247.177913	-174.477733	238.630809	85.324479	70.211220	4.601963	16.583163	36.669632	-29.505079	-39.619111	71.412095	84.140121	-21.921146	11.355099
7.490909	4.015369	-2.072449	93.345061	0.099290	0.689778	0.821897	-5.008170	3.910591	3.495331	5.148918	0.089866	28.717156	4.171686	0.000000	-0.965309	-4.019476	-9.744240	12.978739	0.226522	36.410375	7.892594	0.000000	-0.070175	0.295251	-1.678197	-0.130321	0.392683	-1.783084	-0.115290	0.717872	-1.783084	-0.080203	0.717872	-1.468422	-0.065164	0.602075	-1.363535	-0.040098	0.457343	-1.258648	-0.501251	3.339934	-9.333628	0.000000	0.000000	3.608457	-3.210476	-4.142273	247.271093	-175.262307	240.144257	86.714424	71.295140	5.623957	17.307634	36.489378	-28.086449	-43.218739	70.182142	85.570285	-23.596213	13.364836
7.509091	4.007510	-1.993506	93.282940	0.100084	0.689534	0.820981	-5.179015	3.937883	3.864666	5.003215	0.087323	28.759082	3.983084	0.000000	-1.020326	-4.073794	-10.056692	13.095608	0.228561	36.614457	7.930729	0.000000	-0.066896	0.286681	-1.650701	-0.124233	0.381286	-1.753870	-0.109904	0.697036	-1.753870	-0.076456	0.697036	-1.444364	-0.062120	0.584600	-1.341195	-0.038225	0.444069	-1.238026	-0.477833	3.242994	-9.180706	0.000000	0.000000	4.599931	-3.383236	-3.689642	247.327646	-175.319190	241.295312	88.458794	72.612354	6.294266	17.972655	36.470820	-26.870643	-45.336404	69.050323	86.330632	-24.829514	14.835515
7.527273	3.981812	-1.869764	93.140827	0.100789	0.689533	0.819987	-5.403998	3.930303	4.237288	4.853660	0.084712	28.786510	3.867147	0.000000	-1.156047	-4.092802	-10.356291	13.194655	0.230290	36.727079	7.889287	0.000000	-0.066226	0.272718	-1.594899	-0.122988	0.362715	-1.694581	-0.108803	0.663087	-1.694581	-0.075690	0.663087	-1.395537	-0.061497	0.556127	-1.295856	-0.037842	0.422440	-1.196175	-0.473046	3.085041	-8.870352	0.000000	0.000000	5.400562	-3.419736	-3.427997	247.223484	-174.667851	241.932119	90.575165	74.301205	6.681890	18.547182	36.610065	-25.942007	-45.888952	68.050503	86.520165	-25.658051	15.607251
7.545455	3.936640	-1.710524	92.950574	0.101402	0.689793	0.819020	-5.665252	3.890881	4.565413	4.706797	0.082149	28.809166	3.850300	0.000000	-1.350673	-4.077693	-10.614639	13.280136	0.231782	36.732290	7.763008	0.000000	-0.067892	0.249969	-1.514589	-0.126082	0.332459	-1.609250	-0.111539	0.607774	-1.609250	-0.077593	0.607774	-1.325265	-0.063044	0.509737	-1.230603	-0.038793	0.387202	-1.135941	-0.484943	2.827698	-8.423687	0.000000	0.000000	5.968522	-3.239736	-3.444829	246.796849	-173.332434	241.893293	93.068381	76.314620	6.787791	19.010698	36.951524	-25.308267	-44.821508	67.156328	86.175457	-26.103907	15.646620
7.563636	3.868764	-1.530960	92.733694	0.101918	0.690307	0.818122	-5.940252	3.818190	4.803033	4.572800	0.079810	28.830781	3.961414	0.000000	-1.583404	-4.026021	-10.810192	13.349022	0.232984	36.634403	7.555256	0.000000	-0.070929	0.214921	-1.401177	-0.131722	0.285845	-1.488751	-0.116529	0.522559	-1.488751	-0.081065	0.522559	-1.226030	-0.065865	0.438267	-1.138457	-0.040529	0.332912	-1.050883	-0.506638	2.431228	-7.792929	0.000000	0.000000	6.285930	-2.786087	-3.898593	245.778387	-171.324218	240.946865	95.974403	78.368654	6.549747	19.350742	37.555310	-24.864627	-42.094460	66.222590	85.284042	-26.152081	14.917811
7.581818	3.802649	-1.350791	92.553488	0.102247	0.691010	0.817368	-6.204485	3.743179	4.911615	4.450907	0.077683	28.838098	4.168641	0.000000	-1.803750	-3.970515	-10.920452	13.428312	0.234368	36.479815	7.329487	0.000000	-0.074303	0.169904	-1.261495	-0.137988	0.225972	-1.340338	-0.122072	0.413104	-1.340338	-0.084921	0.413104	-1.103808	-0.068998	0.346468	-1.024964	-0.042457	0.263181	-0.946121	-0.530739	1.921986	-7.016055	0.000000	0.000000	6.356155	-2.061522	-4.781302	243.977234	-168.660378	238.958016	99.269215	79.974553	5.904964	19.486285	38.363313	-24.484688	-37.877703	65.227581	83.913737	-25.784350	13.639275
7.600000	3.747469	-1.172105	92.401030	0.102370	0.691849	0.816762	-6.454848	3.672461	4.909958	4.343499	0.075808	28.836189	4.467970	0.000000	-2.018619	-3.915417	-10.951139	13.496394	0.235557	36.290777	7.075910	0.000000	-0.078633	0.118566	-1.082218	-0.146030	0.157692	-1.149856	-0.129187	0.288280	-1.149856	-0.089870	0.288280	-0.946940	-0.073019	0.241779	-0.879302	-0.044931	0.183658	-0.811663	-0.561669	1.341238	-6.018970	0.000000	0.000000	6.152883	-1.177774	-6.037539	241.102948	-165.405829	235.662698	102.912150	80.655971	4.861135	19.383605	39.338047	-24.019829	-32.316696	64.178000	82.226694	-25.016177	11.950003
7.618182	3.723892	-1.006049	92.307457	0.102213	0.692753	0.816330	-6.678996	3.629131	4.786224	4.248755	0.074155	28.810262	4.835114	0.000000	-2.205205	-3.883524	-10.895316	13.555611	0.236590	36.102924	6.830279	0.000000	-0.083501	0.067517	-0.878248	-0.155070	0.089798	-0.933138	-0.137184	0.164162	-0.933138	-0.095433	0.164162	-0.768467	-0.077539	0.137681	-0.713576	-0.047712	0.104584	-0.658686	-0.596439	0.763770	-4.884551	0.000000	0.000000	5.665510	-0.232898	-7.402766	237.177087	-161.660231	231.102274	106.682603	80.364342	3.556745	18.799888	40.366799	-23.423951	-25.770078	63.336851	80.510547	-23.908597	10.223637
7.636364	3.740012	-0.869775	92.314771	0.101724	0.693649	0.816033	-6.861529	3.626684	4.510551	4.167003	0.072728	28.754079	5.243765	0.000000	-2.337069	-3.887206	-10.750242	13.611542	0.237566	35.939876	6.646757	0.000000	-0.087589	0.019853	-0.667243	-0.162662	0.026405	-0.708946	-0.143900	0.048272	-0.708946	-0.100106	0.048272	-0.583838	-0.081335	0.040485	-0.542135	-0.050048	0.030753	-0.500432	-0.625640	0.224586	-3.711005	0.000000	0.000000	4.918627	0.703315	-8.707797	232.297159	-157.583744	225.369059	110.326048	79.174117	2.271106	17.618532	41.437000	-22.658595	-18.593004	62.964169	79.090848	-22.376518	8.749185
7.654545	3.795913	-0.777909	92.408116	0.100919	0.694468	0.815776	-6.991735	3.663152	4.113902	4.101520	0.071585	28.673567	5.672812	0.000000	-2.416606	-3.919898	-10.490502	13.642157	0.238101	35.788546	6.467598	0.000000	-0.089669	-0.022764	-0.460819	-0.166525	-0.030277	-0.489621	-0.147318	-0.055349	-0.489621	-0.102483	-0.055349	-0.403217	-0.083267	-0.046421	-0.374416	-0.051237	-0.035262	-0.345615	-0.640500	-0.257514	-2.562940	0.000000	0.000000	3.966777	1.545816	-9.835054	226.613699	-153.392807	218.508269	113.606938	77.557355	1.237323	16.077143	42.570502	-21.739060	-11.044276	63.252435	77.889432	-20.328098	7.635799
7.672727	3.889237	-0.748225	92.644308	0.099738	0.695130	0.815506	-7.051113	3.739583	3.517952	4.064811	0.070944	28.588261	6.135679	0.000000	-2.414386	-3.987422	-10.153437	13.663290	0.238469	35.663866	6.406493	0.000000	-0.089202	-0.059773	-0.282848	-0.165658	-0.079498	-0.300526	-0.146551	-0.145333	-0.300526	-0.101949	-0.145333	-0.247492	-0.082833	-0.121890	-0.229814	-0.050970	-0.092589	-0.212136	-0.637164	-0.676167	-1.573113	0.000000	0.000000	2.906971	2.274099	-10.674150	220.281030	-149.328515	210.609462	116.270013	75.548077	0.365363	14.628656	43.751864	-20.726211	-3.209693	64.280451	76.780199	-17.965050	6.732883
7.690909	4.005726	-0.783971	92.997734	0.098234	0.695595	0.815129	-7.047774	3.839493	2.792946	4.047532	0.070643	28.511234	6.581920	0.000000	-2.357119	-4.064668	-9.677646	13.638210	0.238032	35.524740	6.360667	0.000000	-0.085946	-0.093472	-0.136215	-0.159610	-0.124318	-0.144728	-0.141201	-0.227268	-0.144728	-0.098228	-0.227268	-0.119188	-0.079810	-0.190608	-0.110674	-0.049110	-0.144788	-0.102161	-0.613904	-1.057374	-0.757585	0.000000	0.000000	1.824146	2.918239	-11.285390	213.522644	-145.510524	201.819344	118.075400	74.067936	-0.405635	13.527903	44.961527	-19.656808	4.901198	66.036983	75.499168	-15.499104	5.907819
7.709091	4.138780	-0.890313	93.464845	0.096410	0.695815	0.814625	-6.983298	3.956963	2.035836	4.041747	0.070542	28.423464	6.877486	0.000000	-2.246009	-4.136835	-9.016346	13.562244	0.236706	35.343487	6.245325	0.000000	-0.079706	-0.123465	-0.029793	-0.148022	-0.164208	-0.031655	-0.130949	-0.300192	-0.031655	-0.091096	-0.300192	-0.026069	-0.074015	-0.251769	-0.024207	-0.045544	-0.191247	-0.022345	-0.569333	-1.396656	-0.165698	0.000000	0.000000	0.815331	3.455509	-11.662900	206.601116	-142.018215	192.383122	118.708328	73.245936	-0.987685	12.902199	46.063658	-18.597174	13.202785	68.485991	74.115801	-13.089555	5.234545
7.727273	4.288373	-1.073700	94.069124	0.094233	0.695739	0.814024	-6.852354	4.088075	1.205776	4.045733	0.070611	28.334795	7.043783	0.000000	-2.059845	-4.202959	-8.178950	13.456075	0.234853	35.136135	6.100614	0.000000	-0.069686	-0.147607	0.026117	-0.129415	-0.196317	0.027749	-0.114488	-0.358892	0.027749	-0.079645	-0.358892	0.022852	-0.064711	-0.301000	0.021220	-0.039819	-0.228643	0.019588	-0.497763	-1.669760	0.145255	0.000000	0.000000	-0.028927	3.826500	-11.781839	199.680998	-138.909411	182.541857	117.988019	73.435389	-1.357787	12.700917	46.896042	-17.590420	21.480038	71.595301	72.578150	-10.743847	4.974762
7.745455	4.436654	-1.317247	94.784332	0.091789	0.695384	0.813379	-6.672036	4.217184	0.421328	4.052826	0.070735	28.220552	6.953855	0.000000	-1.820705	-4.243436	-7.185086	13.309969	0.232303	34.898423	5.899362	0.000000	-0.058457	-0.167370	0.033769	-0.108560	-0.222602	0.035880	-0.096039	-0.406944	0.035880	-0.066810	-0.406944	0.029548	-0.054283	-0.341301	0.027437	-0.033402	-0.259256	0.025327	-0.417551	-1.893323	0.187814	0.000000	0.000000	-0.658125	4.023341	-11.730762	192.915009	-136.215884	172.445818	115.918045	75.481929	-1.406737	13.113931	47.307616	-16.713941	29.490455	75.297302	71.269680	-8.465776	5.509290
